<svg xmlns="http://www.w3.org/2000/svg" viewBox="0 0 16 16" aria-hidden="true"><g filter="url(#a)"><path fill="#9494c7" d="M12.556 2.317a.405.405 0 0 1 .05.626l-1.562 1.561a.462.462 0 0 1-.537.073A3.846 3.846 0 0 0 5.33 9.753a.462.462 0 0 1-.073.538l-1.562 1.561a.405.405 0 0 1-.625-.05 6.838 6.838 0 0 1 9.485-9.485z"/><path fill="url(#b)" fill-opacity=".19" d="M12.556 2.317a.405.405 0 0 1 .05.626l-1.562 1.561a.462.462 0 0 1-.537.073A3.846 3.846 0 0 0 5.33 9.753a.462.462 0 0 1-.073.538l-1.562 1.561a.405.405 0 0 1-.625-.05 6.838 6.838 0 0 1 9.485-9.485z"/><g filter="url(#c)"><path fill="#5959cc" d="M10.89 8.002a2.137 2.137 0 1 1-4.273 0 2.137 2.137 0 0 1 4.274 0z"/><path fill="url(#d)" fill-opacity=".11" d="M10.89 8.002a2.137 2.137 0 1 1-4.273 0 2.137 2.137 0 0 1 4.274 0z"/><path fill="#5959cc" d="M12.604 13.06a.405.405 0 0 1-.05.627 6.806 6.806 0 0 1-3.8 1.152 6.806 6.806 0 0 1-3.8-1.152.405.405 0 0 1-.05-.626l1.561-1.562a.462.462 0 0 1 .538-.072 3.83 3.83 0 0 0 1.751.42 3.83 3.83 0 0 0 1.751-.42.462.462 0 0 1 .538.072l1.562 1.562z"/><path fill="url(#e)" fill-opacity=".11" d="M12.604 13.06a.405.405 0 0 1-.05.627 6.806 6.806 0 0 1-3.8 1.152 6.806 6.806 0 0 1-3.8-1.152.405.405 0 0 1-.05-.626l1.561-1.562a.462.462 0 0 1 .538-.072 3.83 3.83 0 0 0 1.751.42 3.83 3.83 0 0 0 1.751-.42.462.462 0 0 1 .538.072l1.562 1.562z"/></g></g></svg>