<svg width="24" height="24" viewBox="0 0 24 24" fill="none" xmlns="http://www.w3.org/2000/svg">
  <path d="M20.47 2H3.53C2.684 2 2 2.684 2 3.53V20.47C2 21.316 2.684 22 3.53 22H20.47C21.316 22 22 21.316 22 20.47V3.53C22 2.684 21.316 2 20.47 2ZM8.09 18.74H5.07V9.237H8.09V18.74ZM6.58 7.98C5.56 7.98 4.73 7.15 4.73 6.13C4.73 5.11 5.56 4.28 6.58 4.28C7.6 4.28 8.43 5.11 8.43 6.13C8.43 7.15 7.6 7.98 6.58 7.98ZM18.91 18.74H15.89V14.13C15.89 12.98 15.87 11.53 14.33 11.53C12.77 11.53 12.51 12.77 12.51 14.05V18.74H9.49V9.237H12.4V10.56H12.44C12.85 9.79 13.84 8.98 15.31 8.98C18.37 8.98 18.91 11.01 18.91 13.64V18.74Z" fill="white"/>
</svg> 