<!DOCTYPE svg PUBLIC "-//W3C//DTD SVG 1.1//EN" "http://www.w3.org/Graphics/SVG/1.1/DTD/svg11.dtd">
<!-- Uploaded to: SVG Repo, www.svgrepo.com, Transformed by: SVG Repo Mixer Tools -->
<svg fill="#000000" width="800px" height="800px" viewBox="0 0 24 24" id="email-file-text" data-name="Line Color" xmlns="http://www.w3.org/2000/svg" class="icon line-color">
<g id="SVGRepo_bgCarrier" stroke-width="0"/>
<g id="SVGRepo_tracerCarrier" stroke-linecap="round" stroke-linejoin="round"/>
<g id="SVGRepo_iconCarrier">
<path id="secondary" d="M11.45,14.63a1,1,0,0,0,1.1,0L18,11V4a1,1,0,0,0-1-1H8L6,5v6ZM6,5H8V3Z" style="fill: none; stroke: #1C74E9; stroke-linecap: round; stroke-linejoin: round; stroke-width: 2;"/>
<path id="primary" d="M12.55,14.63,19.45,10a1,1,0,0,1,1.55.83V20a1,1,0,0,1-1,1H4a1,1,0,0,1-1-1V10.87A1,1,0,0,1,4.55,10l6.9,4.59A1,1,0,0,0,12.55,14.63Z" style="fill: none; stroke: #F17165; stroke-linecap: round; stroke-linejoin: round; stroke-width: 2;"/>
</g>
</svg>