<svg role="img" viewBox="0 0 40 40" xmlns="http://www.w3.org/2000/svg" width="1.4em" height="1.4em"><rect x="0.5" y="0.5" width="39" height="39" rx="10" fill="#192a56" stroke="#192a56"/><svg xmlns="http://www.w3.org/2000/svg" fill="#ffffff" viewBox="0 0 24 24" width="23px" height="23px" x="8.5" y="8.5" color="#ffffff"><path d="M23.342 23.378h-4.76v-7.47c0-1.78-.036-4.073-2.48-4.073-2.482 0-2.86 1.938-2.86 3.942v7.601h-4.76V8.018h4.572v2.093h.061c.639-1.207 2.192-2.481 4.513-2.481 4.823 0 5.715 3.179 5.715 7.317l-.001 8.431zM3.106 5.916a2.764 2.764 0 01-2.763-2.77 2.763 2.763 0 115.527 0 2.77 2.77 0 01-2.764 2.77zm2.386 17.462H.72V8.018h4.773v15.36z"/></svg></svg>