<svg role="img" viewBox="0 0 40 40" xmlns="http://www.w3.org/2000/svg" width="1.4em" height="1.4em"><rect x="0.5" y="0.5" width="39" height="39" rx="10" fill="#192a56" stroke="#192a56"/><svg xmlns="http://www.w3.org/2000/svg" viewBox="0 0 24 24" fill="#ffffff" width="23px" height="23px" x="8.5" y="8.5" color="#ffffff"><title>Phone</title><path d="M22.964 17.632l-.999 4.33a1.336 1.336 0 01-1.31 1.04c-10.834 0-19.65-8.816-19.65-19.66 0-.629.428-1.167 1.04-1.307l4.33-.998a1.352 1.352 0 011.54.778L9.912 6.48c.233.55.076 1.188-.386 1.565L7.214 9.942a15.021 15.021 0 006.854 6.852l1.892-2.312a1.337 1.337 0 011.567-.385l4.66 1.997c.596.258.923.91.777 1.538z"/></svg></svg>